<?xml version="1.0" encoding="UTF-8" standalone="no"?>
<!-- Created with Inkscape (http://www.inkscape.org/) -->

<svg
   xmlns:dc="http://purl.org/dc/elements/1.1/"
   xmlns:cc="http://creativecommons.org/ns#"
   xmlns:rdf="http://www.w3.org/1999/02/22-rdf-syntax-ns#"
   xmlns:svg="http://www.w3.org/2000/svg"
   xmlns="http://www.w3.org/2000/svg"
   xmlns:sodipodi="http://sodipodi.sourceforge.net/DTD/sodipodi-0.dtd"
   xmlns:inkscape="http://www.inkscape.org/namespaces/inkscape"
   width="599.47815"
   height="761.27557"
   id="svg2"
   version="1.1"
   inkscape:version="0.48.5 r10040"
   sodipodi:docname="New document 1">
  <defs
     id="defs4" />
  <sodipodi:namedview
     id="base"
     pagecolor="#ffffff"
     bordercolor="#666666"
     borderopacity="1.0"
     inkscape:pageopacity="0.0"
     inkscape:pageshadow="2"
     inkscape:zoom="0.95839844"
     inkscape:cx="294.06451"
     inkscape:cy="383.31454"
     inkscape:document-units="px"
     inkscape:current-layer="layer1"
     showgrid="false"
     fit-margin-top="0"
     fit-margin-left="0"
     fit-margin-right="0"
     fit-margin-bottom="0"
     inkscape:window-width="1246"
     inkscape:window-height="887"
     inkscape:window-x="0"
     inkscape:window-y="0"
     inkscape:window-maximized="0" />
  <metadata
     id="metadata7">
    <rdf:RDF>
      <cc:Work
         rdf:about="">
        <dc:format>image/svg+xml</dc:format>
        <dc:type
           rdf:resource="http://purl.org/dc/dcmitype/StillImage" />
        <dc:title></dc:title>
      </cc:Work>
    </rdf:RDF>
  </metadata>
  <g
     inkscape:label="Layer 1"
     inkscape:groupmode="layer"
     id="layer1"
     transform="translate(-80.935486,-154.40117)">
    <path
       style="fill:#000000"
       d="m 361.91366,914.80701 c -2.475,-0.43895 -9.675,-1.26303 -16,-1.83128 -21.09398,-1.89514 -49.51241,-13.42802 -59.5,-24.14653 -1.65,-1.77075 -5.38781,-5.00027 -8.30624,-7.1767 -6.50679,-4.85245 -18.94076,-21.31991 -20.82485,-27.58027 -0.7529,-2.5017 -1.36891,-7.9002 -1.36891,-11.99665 0,-6.26829 0.4919,-8.4788 3.10537,-13.95482 1.70795,-3.5787 4.55008,-8.14304 6.31584,-10.14297 1.76576,-1.99994 4.25315,-5.13971 5.52754,-6.97727 1.27439,-1.83757 4.51445,-4.69309 7.20014,-6.34561 2.6857,-1.65253 5.40931,-3.97407 6.05247,-5.15898 0.64316,-1.18491 1.25188,-6.20439 1.3527,-11.15439 0.18065,-8.86966 0.29443,-9.25343 7.85667,-26.5 4.22036,-9.625 8.10445,-18.53367 8.63132,-19.79705 0.52687,-1.26338 0.95795,-4.12343 0.95795,-6.35566 0,-2.23223 0.75849,-6.82356 1.68552,-10.20295 2.45293,-8.9418 2.34263,-41.61285 -0.16929,-50.14434 -2.66215,-9.04174 -3.55512,-10.27491 -14.42153,-19.916 -6.54547,-5.80739 -10.38176,-9.99126 -11.00311,-12 -1.45909,-4.71712 -2.07185,-13.15211 -2.61082,-35.93961 -0.27131,-11.47059 -0.74202,-21.25809 -1.04604,-21.75 -1.14784,-1.85725 -4.42824,-0.80761 -5.80667,1.85797 -0.78282,1.5138 -2.41801,3.6513 -3.63377,4.75 -1.21575,1.0987 -3.27827,4.10329 -4.58336,6.67687 -1.30509,2.57358 -2.78719,4.93528 -3.29355,5.24823 -0.50636,0.31294 -3.42251,4.76165 -6.48032,9.88602 -3.05782,5.12436 -7.29245,11.31266 -9.41029,13.75177 -6.29473,7.24964 -15.34635,19.65349 -23.66902,32.43475 -8.6367,13.26353 -9.78013,14.49306 -13.49888,14.51531 -4.88344,0.0292 -5.51783,1.23443 -6.15634,11.69573 -1.41957,23.25813 -2.91585,32.04185 -6.92475,40.65069 -7.86584,16.89137 -15.42599,20.54471 -30.81716,14.89201 -4.71034,-1.72997 -5.28583,-2.66746 -7.82905,-12.75374 -3.09798,-12.28641 -5.77445,-13.16619 -15.36333,-5.05005 -5.27762,4.46703 -7.67229,5.75221 -13.27767,7.12588 l -6.83878,1.67593 -7.17589,-4.76446 c -3.94675,-2.62045 -8.3009,-5.60191 -9.6759,-6.62547 -1.375,-1.02356 -5.0085,-3.62432 -8.07446,-5.77948 -7.89124,-5.547 -11.93052,-10.42225 -11.90358,-14.36715 0.0384,-5.61847 3.38148,-11.05571 10.93594,-17.78627 3.96875,-3.53591 10.16957,-10.19694 13.7796,-14.80228 3.61003,-4.60534 14.34714,-16.21344 23.86024,-25.79578 9.5131,-9.58234 17.59928,-18.37625 17.96928,-19.54204 1.11364,-3.50877 9.29939,-14.91697 15.04276,-20.96459 2.96462,-3.12167 5.39022,-6.24047 5.39022,-6.93067 0,-1.42632 8.02132,-13.39696 15.08266,-22.50867 5.80517,-7.49078 8.48444,-12.62532 10.37444,-19.88149 1.7919,-6.8796 6.27817,-15.28384 9.17018,-17.17876 1.19473,-0.78282 3.29745,-3.12362 4.6727,-5.20177 1.37526,-2.07816 4.68287,-6.28673 7.35025,-9.35239 2.66737,-3.06567 5.97477,-7.74898 7.34977,-10.40737 4.05662,-7.84298 10.07213,-16.58619 14.26985,-20.74044 2.15484,-2.13253 5.44542,-6.26524 7.3124,-9.18381 1.86699,-2.91856 3.85981,-5.59405 4.42851,-5.94552 0.5687,-0.35148 2.33193,-3.21024 3.9183,-6.35282 3.24835,-6.43495 10.53553,-13.7236 14.76183,-14.76483 7.14622,-1.7606 8.86829,-4.76157 9.68392,-16.8757 0.67543,-10.03171 2.1524,-14.36975 5.2999,-15.56643 3.94014,-1.49803 32.03606,-2.92622 57.64103,-2.93003 14.49737,-0.002 24.57256,-0.40858 25.75,-1.03872 1.5077,-0.8069 1.93426,-2.11407 1.93426,-5.92742 0,-4.09409 -0.42986,-5.23037 -2.63486,-6.96482 -1.44917,-1.13992 -3.48249,-2.07258 -4.51849,-2.07258 -2.77289,0 -23.67375,-6.91123 -24.38599,-8.06365 -0.33521,-0.54238 -3.67177,-2.5283 -7.41459,-4.41315 -5.08906,-2.56281 -7.7367,-4.69607 -10.49935,-8.45955 -4.43372,-6.03993 -5.49687,-11.75163 -5.52661,-29.69121 -0.014,-8.46476 -0.39764,-12.43865 -1.27011,-13.1576 -0.6875,-0.56653 -3.725,-1.48766 -6.75,-2.04697 -7.98595,-1.47654 -9.94823,-2.47495 -15.41337,-7.84236 -6.56464,-6.44725 -9.03235,-13.06345 -8.93037,-23.94332 0.0866,-9.24122 2.78202,-16.54997 8.82174,-23.92065 3.49281,-4.26252 5.75788,-5.5344 13.27467,-7.45403 6.90994,-1.76464 7.82328,-4.10056 6.25027,-15.98533 -2.28562,-17.26883 0.6353,-28.77167 8.28595,-32.63077 1.76611,-0.89085 4.37297,-2.70509 5.79303,-4.03163 2.95036,-2.75608 16.32216,-7.91905 25.91808,-10.00721 3.575,-0.77795 9.2,-2.26281 12.5,-3.2997 3.3,-1.03689 9.15,-2.43225 13,-3.10081 3.85,-0.66856 7.52603,-1.63111 8.16896,-2.139 0.64292,-0.50789 1.68273,-4.1611 2.31069,-8.11824 1.48996,-9.38927 5.21206,-18.09427 9.92123,-23.20311 2.08038,-2.25695 4.19125,-4.75338 4.69082,-5.54763 0.49956,-0.79424 3.79369,-3.42349 7.32029,-5.84277 5.66224,-3.88436 7.29923,-4.4896 14,-5.17611 11.00633,-1.12764 19.67359,0.33518 27.51104,4.64318 6.02542,3.31199 11.57697,8.33615 11.57697,10.47716 0,0.49065 2.02523,4.02277 4.5005,7.84916 4.1716,6.44864 5.497,10.28845 7.01617,20.32656 0.63899,4.22225 3.51978,6.77874 7.63865,6.77874 4.69241,0 38.07074,11.06392 42.43956,14.06744 5.15948,3.5471 10.24645,9.29189 10.80379,12.2009 0.23517,1.22741 0.96786,7.85666 1.62821,14.73166 0.66035,6.875 1.62536,13.02732 2.14445,13.67183 0.51909,0.6445 2.8304,1.48003 5.13624,1.85672 7.77954,1.2709 13.30165,4.40655 20.02536,11.37111 7.37816,7.64244 8.15358,10.09857 7.52474,23.83445 -0.31045,6.78108 -0.78425,8.46954 -3.58877,12.7892 -4.71918,7.26871 -13.07448,14.18049 -18.9233,15.65397 -8.37951,2.11104 -8.14197,1.41478 -7.57247,22.1956 0.66349,24.21087 0.26042,26.60786 -5.51212,32.77917 -4.78115,5.11143 -15.51799,12.84795 -17.83055,12.84795 -0.7379,0 -2.92059,1.0715 -4.8504,2.38111 -1.92982,1.30961 -5.65638,2.70317 -8.28124,3.09679 -2.62486,0.39362 -5.9034,1.28285 -7.28565,1.97607 -1.38224,0.69322 -4.04528,1.55233 -5.91786,1.90915 -4.54164,0.8654 -6.09531,2.31522 -6.09531,5.6879 0,3.69092 2.39398,5.94898 6.30708,5.94898 1.74032,0 5.42067,1.05422 8.17857,2.34271 6.29951,2.94313 13.35525,5.40827 20.80955,7.27046 7.9692,1.99082 91.8691,1.62346 93.90561,-0.41117 0.96422,-0.96334 1.38254,-6.88115 1.62247,-22.95262 0.1778,-11.91005 0.0356,-23.18784 -0.3159,-25.06176 -0.41782,-2.22717 -2.78086,-5.76608 -6.82328,-10.2186 -6.27792,-6.91481 -19.6841,-26.47046 -19.6841,-28.71327 0,-0.67486 -1.575,-4.19586 -3.5,-7.82444 -5.17973,-9.76366 -4.54515,-18.44112 1.77447,-24.26482 5.00798,-4.61499 15.71395,-4.68056 21.49695,-0.13165 3.44449,2.70943 6.07792,2.49161 7.25333,-0.59994 0.53639,-1.4108 0.98599,-10.0733 0.99911,-19.25 0.0299,-20.90556 0.59551,-23.47622 6.36654,-28.9349 l 4.49318,-4.25 18.98192,0 c 23.02949,0 27.62424,0.86887 32.83901,6.20986 l 3.79549,3.88736 -0.29059,51.91602 c -0.26978,48.19902 -0.42482,52.22284 -2.16552,56.20139 -2.04787,4.68065 -2.3837,11.21834 -3.99567,77.78537 -0.70622,29.16352 -1.06081,34.21196 -2.73929,39 -4.3761,12.4833 -11.52749,19.51954 -22.83146,22.46385 -4.57784,1.19238 -6.30638,1.18713 -12.15669,-0.0369 -3.75102,-0.78483 -7.09892,-1.42695 -7.43978,-1.42695 -0.34086,0 -2.81603,-1.73845 -5.50037,-3.86323 -6.04335,-4.78357 -8.91047,-5.20704 -29.19659,-4.3123 l -15.31595,0.67553 -0.38036,75 c -0.43335,85.44759 -0.95498,101.63953 -3.36853,104.56236 -1.1647,1.41047 -3.63452,2.20955 -8.79892,2.8468 -3.94884,0.48726 -7.66134,1.18359 -8.25,1.5474 -2.44464,1.51088 -1.02256,5.76821 3.34449,10.0125 2.42813,2.35987 6.91379,8.05723 9.96814,12.66081 8.22592,12.39824 12.76905,18.05592 16.53913,20.59657 3.09664,2.08683 4.61406,2.29072 18.47584,2.48252 18.46525,0.25549 20.54028,0.34528 28.10212,1.21599 7.34403,0.84564 25.22984,4.37035 28.09165,5.53595 6.1441,2.50247 7.32332,17.96008 2.44042,31.98974 -1.61764,4.64785 -3.87306,9.59785 -5.01204,11 -1.13898,1.40215 -3.29694,4.25697 -4.79545,6.34404 -1.49852,2.08707 -4.21251,5.64759 -6.0311,7.91226 -1.81858,2.26467 -5.24757,7.11815 -7.61998,10.78551 -4.74147,7.32957 -26.97454,30.26923 -35.41411,36.53961 -2.93734,2.18237 -8.87639,6.78638 -13.19789,10.23114 -4.32151,3.44476 -10.01774,7.18928 -12.65828,8.32115 -2.64055,1.13187 -6.1515,3.05506 -7.80211,4.27375 -1.65061,1.21869 -6.15111,3.19403 -10.00111,4.38963 -16.638,5.16687 -26.03604,3.70656 -36,-5.59386 -5.88759,-5.49551 -7.03257,-7.17395 -9.6183,-14.09958 -0.70756,-1.89514 -2.47895,-4.82014 -3.93643,-6.5 -4.37509,-5.04264 -14.94527,-28.16356 -14.94527,-32.69087 0,-3.46617 -6.61113,-17.55226 -10.41887,-22.1991 -1.97586,-2.41128 -4.2113,-6.44037 -4.96765,-8.95352 -0.75635,-2.51316 -3.18013,-6.7387 -5.38617,-9.39009 -2.20604,-2.65139 -4.93334,-6.66369 -6.06066,-8.91623 -1.12732,-2.25253 -4.39797,-6.52753 -7.2681,-9.5 -2.87013,-2.97246 -7.10259,-8.32948 -9.40546,-11.90448 -5.80746,-9.01557 -9.75243,-13 -12.87125,-13 -3.55223,0 -5.37249,3.19935 -6.56167,11.53302 -0.91481,6.4109 -4.6227,18.08123 -9.93002,31.254 -1.17158,2.90786 -2.13015,6.11984 -2.13015,7.13773 0,2.01598 -4.01095,11.28448 -9.98583,23.07525 -12.01995,23.72003 -14.40783,27.2288 -22.21017,32.63583 -3.10346,2.1507 -3.804,3.24351 -3.804,5.93407 0,2.7658 0.68572,3.75811 4.25,6.15021 2.3375,1.56876 5.15,4.32685 6.25,6.12908 1.1,1.80224 4.8125,7.61429 8.25,12.91567 3.4375,5.30138 6.25,10.06806 6.25,10.59262 0,0.52456 1.0583,2.34621 2.35179,4.04813 4.42819,5.82645 5.64821,9.27766 5.64821,15.97778 0,6.42717 -0.0369,6.51295 -4.30675,10.01177 -6.31042,5.17091 -16.10242,9.37348 -24.69325,10.59793 -4.125,0.58794 -10.25188,1.50501 -13.6153,2.03794 -6.86171,1.08724 -8.93454,1.07841 -15.3847,-0.0656 z m 30.5,-7.72171 c 4.94725,-0.89442 15.97426,-6.71802 19.61573,-10.35949 3.70033,-3.70033 2.01901,-9.46072 -7.18482,-24.61601 -2.0815,-3.42746 -4.09388,-7.25246 -4.47196,-8.5 -0.73599,-2.42852 -19.29586,-22.15798 -23.45895,-24.93726 -2.41763,-1.61402 -18.19879,-4.831 -23.69884,-4.831 -9.48926,0 -38.26122,-12.66838 -47.77412,-21.03508 -3.28513,-2.88931 -7.43317,-5.86341 -9.21788,-6.60911 -3.83583,-1.60271 -8.93157,-1.77578 -9.82287,-0.33363 -0.34746,0.5622 -3.04985,2.80854 -6.00531,4.99187 -5.79894,4.28393 -13.48284,15.01221 -16.64994,23.24668 -2.35567,6.12477 -2.31455,11.41303 0.15265,19.63146 3.41244,11.36709 12.22895,20.43497 37.11338,38.17155 4.20858,2.99971 9.48732,5.55555 15.40293,7.45774 4.95,1.5917 10.01199,3.52694 11.24887,4.30053 5.14091,3.21532 21.84142,5.12437 41.25113,4.71546 10.175,-0.21436 20.75,-0.79653 23.5,-1.29371 z M 560.4486,862.21023 c 4.93078,-1.99721 10.76506,-4.88827 12.96506,-6.42456 2.2,-1.5363 7.24048,-4.62676 11.20107,-6.8677 3.96059,-2.24093 10.26059,-6.8272 14,-10.1917 3.73941,-3.3645 8.59893,-7.31277 10.79893,-8.77392 4.94712,-3.28569 12.5575,-10.89302 18.5,-18.49257 2.475,-3.16515 6.84492,-8.76159 9.71093,-12.43653 2.86601,-3.67494 7.03077,-8.91166 9.25502,-11.63716 2.22425,-2.7255 4.96933,-7.4505 6.10019,-10.5 1.13085,-3.0495 3.19858,-7.20865 4.59494,-9.24254 5.52661,-8.04989 7.19533,-19.9456 3.33892,-23.80201 -4.30109,-4.30109 -25.408,-0.6547 -32,5.52825 -1.375,1.28967 -5.425,3.66644 -9,5.28171 -3.575,1.61526 -8.24938,4.34381 -10.3875,6.06344 -2.13813,1.71963 -4.20646,3.1266 -4.59629,3.1266 -0.38982,0 -5.46604,4.6125 -11.28047,10.25 -5.81443,5.6375 -14.41793,13.85 -19.11888,18.25 -10.20938,9.55579 -17.04045,17.47031 -21.11686,24.46613 -1.65,2.83168 -4.97975,8.15863 -7.39944,11.83767 -6.76018,10.27855 -10.4635,19.62409 -10.51972,26.54712 -0.0422,5.19217 0.26651,6.12103 2.74159,8.25 4.25757,3.6622 11.06077,3.2848 22.21251,-1.23223 z m -30.12572,-14.61869 c 0.80044,-1.2375 1.76854,-3.6 2.15135,-5.25 1.12188,-4.83556 7.37201,-16.14183 11.54216,-20.87937 2.12034,-2.40884 4.26194,-5.44641 4.7591,-6.75017 1.84424,-4.83631 10.85673,-15.46163 25.53821,-30.1084 8.30498,-8.28534 17.34996,-16.79127 20.09996,-18.90206 2.75,-2.1108 7.25,-5.64594 10,-7.85587 2.75,-2.20993 8.15,-5.60018 12,-7.53389 9.57456,-4.80893 15.5,-9.20566 15.5,-11.50115 0,-3.65271 -3.31809,-4.17305 -25.98057,-4.07426 -22.14731,0.0965 -27.87477,0.9077 -31.96978,4.52774 -0.85231,0.75344 -7.77292,4.58374 -15.37914,8.51176 -16.43073,8.4852 -22.62421,12.59088 -28.67051,19.00579 -2.475,2.62588 -5.23965,5.17608 -6.14366,5.66711 -0.90401,0.49102 -2.92901,2.96793 -4.5,5.50425 -1.57099,2.53631 -5.10634,7.89371 -7.85634,11.90532 l -5,7.29385 0,9.17444 0,9.17445 6.8316,13.92023 c 9.88644,20.14484 13.38958,23.8721 17.07762,18.17023 z m -144.8192,-22.00862 c 6.28255,-3.22511 10.77022,-8.22269 14.51114,-16.15995 1.57644,-3.34479 3.78653,-7.65643 4.91132,-9.58143 1.14186,-1.95422 1.92195,-4.82496 1.7663,-6.5 l -0.27878,-3 -12.75774,-0.16719 c -15.50848,-0.20323 -44.26866,-4.49138 -53.54753,-7.98394 -3.54635,-1.33484 -8.3819,-3.7576 -10.74566,-5.38391 -2.36376,-1.62631 -5.56278,-3.43789 -7.10893,-4.02574 -1.54616,-0.58785 -5.84069,-3.06465 -9.54341,-5.50402 -6.92897,-4.56482 -10.6942,-5.46859 -12.70234,-3.04893 -2.03201,2.44842 -9.09439,19.88637 -9.09439,22.45525 0,8.47485 20.03211,25.94028 36.97251,32.23528 3.04012,1.1297 6.99165,2.91037 8.78117,3.95705 2.90346,1.6982 13.52849,4.13268 23.24632,5.32634 1.925,0.23645 7.325,0.33186 12,0.21202 6.92349,-0.17748 9.44405,-0.70252 13.59002,-2.83083 z m 118.09553,-35.91569 c 1.27295,-1.19588 2.31445,-2.68084 2.31445,-3.29992 0,-2.02437 8.59057,-12.8678 16.26128,-20.52577 11.2789,-11.26017 16.44397,-15.2912 25.10501,-19.59297 4.32645,-2.14887 9.05035,-5.14491 10.49755,-6.65788 1.50772,-1.57624 5.4078,-3.65969 9.13372,-4.87929 7.2981,-2.38888 10.00244,-4.29716 10.00244,-7.05809 0,-2.60042 -4.13926,-10.33496 -8.7295,-16.31177 -3.51186,-4.57269 -4.23383,-5.02567 -8.44781,-5.3004 -3.41706,-0.22278 -6.95571,0.61707 -13.6937,3.25 -4.99726,1.95272 -9.43312,3.56194 -9.85746,3.57605 -0.90803,0.0302 -19.81368,12.20462 -30.62668,19.72225 -4.15157,2.88635 -8.35754,6.41172 -9.34658,7.83415 -0.98905,1.42243 -3.67012,4.9671 -5.95793,7.87705 -5.30096,6.74248 -7.34598,10.722 -7.31838,14.24124 0.0264,3.3599 2.9614,10.09294 6.34521,14.55601 1.3526,1.78401 3.59856,5.83115 4.99102,8.99365 2.85576,6.48588 5.25185,7.40443 9.32736,3.57569 z m -93.91241,-7.00277 c 2.27238,-0.6896 3.83192,-2.11381 5.10073,-4.65811 3.20505,-6.42694 11.12613,-31.82403 11.12613,-35.67331 l 0,-3.71031 -3.75,0.70318 c -2.0625,0.38675 -11.14929,0.9174 -20.19286,1.17922 -14.50499,0.41993 -17.15672,0.24246 -22.5,-1.50581 -3.33143,-1.09001 -8.75714,-2.27373 -12.05714,-2.63048 -11.48305,-1.24141 -39.73609,-11.78762 -47.38486,-17.68768 -5.11976,-3.94925 -7.84075,-1.85551 -9.0919,6.99599 -0.46417,3.28385 -1.78809,8.10504 -2.94204,10.71374 -1.15396,2.6087 -2.34542,7.03979 -2.64771,9.84687 -0.80753,7.49885 1.49074,11.31864 9.08753,15.10378 3.31155,1.65 7.58655,3.97589 9.5,5.16864 1.91344,1.19275 7.30398,3.7999 11.97898,5.79366 4.675,1.99376 10.975,4.74612 14,6.11636 3.025,1.37023 9.775,3.11564 15,3.87868 10.93865,1.59744 39.93374,1.83419 44.77314,0.36558 z m 74.54862,-37.13291 c 3.07945,-4.02049 8.26694,-9.85477 11.52775,-12.96506 6.80294,-6.48891 21.65027,-16.42062 31.15049,-20.83728 3.575,-1.66201 8.28095,-3.97297 10.45767,-5.13546 2.17672,-1.16249 6.44393,-2.61166 9.48269,-3.22039 4.25351,-0.85207 5.85662,-1.69755 6.96587,-3.67382 1.29334,-2.30425 1.2369,-2.96003 -0.55131,-6.40583 -2.64683,-5.10032 -5.72761,-7.21693 -12.35492,-8.48829 -8.28588,-1.58954 -25.03511,0.52088 -32,4.03203 -1.925,0.97043 -5.38659,2.07852 -7.69243,2.46243 -2.30584,0.3839 -4.71547,1.32822 -5.35474,2.09849 -0.63926,0.77027 -4.80097,3.99759 -9.24823,7.17183 -4.44727,3.17424 -9.91101,7.72962 -12.14164,10.12307 -2.23064,2.39344 -5.30371,4.99709 -6.82905,5.78587 -3.77895,1.95417 -8.73391,9.03728 -8.73391,12.4851 0,3.90243 4.813,13.70866 7.63629,15.55856 1.28067,0.83912 3.27311,3.05412 4.42766,4.92221 1.5723,2.54404 2.79687,3.39653 4.87899,3.39653 2.27562,0 3.79537,-1.32588 8.37882,-7.30999 z M 177.87974,734.86331 c 6.03518,-3.87277 8.44516,-8.36617 10.96888,-20.45149 1.6673,-7.98422 2.06504,-13.54851 2.06504,-28.88958 l 0,-19.0007 -5.75,-5.60312 c -6.95368,-6.77605 -17.01329,-14.7374 -22.62506,-17.90586 -2.26872,-1.28094 -5.02494,-3.1372 -6.12494,-4.12503 -5.95951,-5.35182 -9.46678,-4.86754 -16.80555,2.3205 -8.35341,8.18182 -26.76818,27.7199 -30.75732,32.63351 -2.00933,2.475 -7.54219,8.54077 -12.29523,13.47949 -8.10922,8.42599 -8.6419,9.24311 -8.6419,13.25655 0,4.17072 0.16784,4.38859 6.75,8.76189 3.7125,2.46665 10.07268,7.1887 14.13373,10.49344 4.93686,4.01745 8.27292,6.00863 10.06698,6.00863 2.88681,0 12.17512,-4.39465 16.74392,-7.92217 7.02783,-5.42612 15.43202,-10.19752 17.43673,-9.89954 3.02746,0.45 3.55933,1.96973 4.63621,13.24722 0.92089,9.64401 1.05066,10.0198 4.57542,13.25 4.75636,4.35888 9.21593,4.45772 15.62309,0.34626 z m 243.59192,-3.14069 c 6.04045,-1.52101 10.11974,-6.23988 10.88261,-12.58888 0.31669,-2.63571 1.02509,-8.1672 1.57421,-12.2922 1.49476,-11.22868 1.33519,-12.72456 -1.55965,-14.62133 -2.72389,-1.78476 -1.0629,-1.81309 -38.45517,0.65587 -7.975,0.52658 -16.975,1.00258 -20,1.05778 -3.025,0.0552 -9.55807,0.52475 -14.51792,1.04345 -7.27118,0.76042 -10.3582,0.63226 -15.93731,-0.66162 -7.14599,-1.65727 -9.26962,-2.83426 -18.44963,-10.22544 -3.84651,-3.09697 -6.15311,-4.26474 -8,-4.05019 l -2.59514,0.30148 0,12.17876 c 0,14.50078 0.29581,15.08382 11.56624,22.79713 10.77752,7.37597 27.86048,12.91076 49.43376,16.01628 11.34123,1.6326 40.15272,1.87588 46.058,0.38891 z m 35.82168,-14.13108 c 2.26661,-2.3375 6.23911,-5.825 8.82778,-7.75 13.05407,-9.70731 21.77058,-17.58395 21.78134,-19.68261 0.0125,-2.43195 -2.85668,-3.81149 -5.91097,-2.84209 -1.05719,0.33554 -9.59178,1.22978 -18.96575,1.9872 -9.37397,0.75743 -17.55491,1.69315 -18.17987,2.0794 -2.26068,1.39718 -3.93221,7.53895 -3.93221,14.44832 0,6.87658 0.10408,7.16738 4.12736,11.53212 2.27005,2.46271 5.02823,4.47766 6.12929,4.47766 1.10106,0 3.85643,-1.9125 6.12303,-4.25 z m -60.37968,-30.36737 c 13.475,-0.86074 28.325,-1.7561 33,-1.9897 4.675,-0.23359 18.175,-1.16565 30,-2.07123 11.825,-0.90559 27.62405,-1.73266 35.109,-1.83795 7.48495,-0.10529 14.14981,-0.52567 14.8108,-0.93418 0.66099,-0.40852 14.21782,-1.27124 30.12629,-1.91717 24.20278,-0.9827 29.18767,-1.43758 30.53664,-2.78656 1.45884,-1.45884 1.60273,-9.58761 1.51309,-85.479 -0.11031,-93.38593 -0.80007,-131.16111 -2.43244,-133.2152 -0.80848,-1.01734 -2.80132,-1.19359 -8.11746,-0.71791 -3.87526,0.34676 -13.69563,0.82201 -21.82305,1.05612 -8.12741,0.2341 -15.32741,0.76957 -16,1.18992 -0.67258,0.42035 -9.77287,1.06152 -20.22287,1.42481 -55.70843,1.93672 -82.39982,3.05443 -95,3.97814 -7.7,0.56449 -24.0775,1.41247 -36.39444,1.8844 -19.81532,0.75924 -22.69452,1.0821 -25,2.80335 l -2.60556,1.94528 -0.2545,107.80841 c -0.23979,101.57513 -0.15307,107.92199 1.5,109.77297 1.97739,2.21413 2.39082,2.20675 51.2545,-0.9145 z m -16,-99.06755 c -0.825,-0.34399 -3.41668,-2.18825 -5.7593,-4.09834 -5.0494,-4.11713 -7.88347,-11.79558 -6.81649,-18.46814 0.94808,-5.92895 2.11971,-7.48379 7.81345,-10.36903 5.45385,-2.76367 10.44064,-2.87733 18.82564,-0.42908 5.68366,1.65952 8.31268,7.28926 7.71961,16.53063 -0.51579,8.03711 -2.77522,12.4293 -7.70537,14.97878 -3.16935,1.63893 -11.85198,2.78316 -14.07754,1.85518 z m 11.5255,-8.33084 c 3.60798,-2.22985 6.4745,-7.32271 6.4745,-11.50302 0,-1.82221 -1.2781,-3.99462 -3.88235,-6.59887 -4.21861,-4.21861 -7.81202,-4.93066 -13.99881,-2.77393 -6.60739,2.30335 -8.17645,11.75105 -3.11257,18.74154 2.68776,3.71034 3.4434,4.15004 7.13197,4.15004 2.39109,0 5.49698,-0.84751 7.38726,-2.01576 z m 68.94362,1.6063 c -2.73302,-1.28567 -6.31912,-3.77405 -7.96912,-5.52972 -2.8082,-2.98806 -3,-3.69473 -3,-11.05315 0,-8.74978 1.34222,-11.57364 7.48983,-15.75767 7.56635,-5.14961 20.61707,-0.58668 25.59945,8.95034 3.188,6.10232 0.34634,14.17386 -7.19438,20.43521 -6.47716,5.37822 -8.79789,5.83768 -14.92578,2.95499 z m 12.11584,-7.05425 c 5.80278,-3.80213 6.70431,-11.76333 1.95705,-17.28235 -2.13179,-2.47835 -3.01747,-2.75394 -8.85044,-2.75394 -7.81128,0 -10.31174,1.75374 -11.21404,7.86517 -0.94503,6.40083 1.25368,11.68526 5.52247,13.27286 4.11435,1.53016 9.25502,1.08012 12.58496,-1.10174 z m 57.91504,2.54477 c -4.48606,-1.09723 -6.89162,-2.62412 -10.36286,-6.57764 -2.77444,-3.15992 -3.13714,-4.27028 -3.13714,-9.60396 0,-6.56284 0.86248,-8.90636 4.87219,-13.23874 5.05721,-5.46417 10.38953,-6.82691 18.21126,-4.65412 3.47615,0.96563 7.99541,5.49473 10.86962,10.89326 1.32784,2.49403 0.98974,7.44496 -0.98051,14.35825 -0.86649,3.04037 -1.96881,4.21048 -5.7718,6.12679 -5.71256,2.87852 -9.72605,3.66833 -13.70076,2.69616 z m 9.09413,-7.7095 c 5.0087,-3.399 6.33508,-5.22052 6.37407,-8.75353 0.1072,-9.71446 -13.23722,-15.50286 -20.04512,-8.69495 -2.51841,2.51841 -2.92308,3.68049 -2.92308,8.39424 0,4.65734 0.43155,5.93315 2.90121,8.57692 3.73217,3.99531 8.27549,4.15368 13.69292,0.47732 z M 373.00087,532.07619 c -1.91614,-1.58547 -2.14856,-3.11063 -2.70252,-17.73465 -0.66922,-17.66669 -0.12289,-20.55377 4.32235,-22.84176 3.53593,-1.81996 36.03408,-4.59813 66.29296,-5.66719 20.04119,-0.70806 46.26614,-2.1058 90.75419,-4.83701 14.88758,-0.91398 18.5852,-0.69182 20.08432,1.2067 0.49477,0.62659 1.40238,4.60389 2.0169,8.83843 1.29434,8.91899 -0.25055,28.34495 -2.44244,30.712 -1.48111,1.59948 -10.41924,2.47936 -40.91297,4.02751 -11,0.55847 -25.625,1.48012 -32.5,2.04811 -6.875,0.56799 -22.85,1.705 -35.5,2.52669 -12.65,0.82169 -24.36657,1.7197 -26.03682,1.99557 -1.67025,0.27588 -11.64143,0.71729 -22.15818,0.98092 -17.11215,0.42896 -19.34164,0.29705 -21.21779,-1.25532 z m 50.91279,-6.16322 c 9.075,-0.59591 27.3,-1.75419 40.5,-2.57394 13.2,-0.81975 26.925,-1.71098 30.5,-1.98051 3.575,-0.26954 15.725,-1.11822 27,-1.88597 11.275,-0.76774 21.32197,-1.73517 22.3266,-2.14984 1.00464,-0.41467 2.24214,-1.84686 2.75,-3.18265 1.23624,-3.25156 1.18256,-22.94577 -0.0689,-25.28418 -1.94115,-3.62706 -6.40226,-4.09658 -24.00768,-2.52674 -9.075,0.80919 -19.59225,1.48052 -23.37166,1.49183 -3.77942,0.0113 -11.42942,0.69474 -17,1.51873 -5.57059,0.82398 -18.22834,1.69018 -28.12834,1.92489 -37.47112,0.88835 -73.01851,3.77317 -76.32987,6.1945 -1.41106,1.03179 -1.67013,3.22644 -1.67013,14.14814 0,17.44111 -0.84843,16.64458 16.98038,15.94183 7.71079,-0.30394 21.44462,-1.04018 30.51962,-1.63609 z m -87.4698,155.87971 c 0.35652,-0.57687 0.8491,-5.41437 1.09461,-10.75 0.67538,-14.6782 0.42232,-197.71548 -0.2782,-201.2181 -0.69177,-3.45885 -7.04104,-9.43855 -11.10491,-10.45851 -1.43403,-0.35992 -3.90959,-1.75018 -5.50124,-3.08947 -1.59165,-1.33928 -3.98438,-2.43506 -5.31719,-2.43506 -1.3328,0 -3.21077,-0.70443 -4.17327,-1.5654 -2.09971,-1.87822 -7.64695,-5.76977 -11.6652,-8.18348 -1.60336,-0.96312 -4.6205,-3.24759 -6.70475,-5.0766 -2.46409,-2.16234 -4.59235,-3.21164 -6.0848,-3 -2.01192,0.2853 -2.33243,0.96986 -2.59647,5.54552 -0.3914,6.78286 0.88815,9.03925 5.56337,9.81055 10.7727,1.77723 20.82519,4.78583 23.49402,7.03151 1.59351,1.34085 3.73211,2.4379 4.75246,2.4379 2.37426,0 5.467,4.3647 8.65896,12.22015 2.32887,5.7314 2.4933,7.16851 2.14458,18.74359 -0.43973,14.59617 -1.45871,17.28032 -10.13924,26.7082 -2.95134,3.20543 -8.41851,10.55306 -12.14927,16.32806 -3.73076,5.775 -8.44635,12.975 -10.47909,16 -2.03274,3.025 -5.46184,8.65 -7.62023,12.5 l -3.92434,7 0,36.0447 c 0,41.4418 -0.66312,38.38351 9.9674,45.96929 3.57784,2.55309 7.76045,6.51939 9.2947,8.814 1.66774,2.49426 4.93206,5.37844 8.11729,7.17201 2.93027,1.65 8.25153,5.5875 11.82502,8.75 4.66131,4.12521 7.2998,5.75 9.33741,5.75 1.56208,0 3.13185,-0.47199 3.48838,-1.04886 z M 206.37447,668.21821 c 0.89341,-0.34284 2.55948,-2.48034 3.70237,-4.75 1.14289,-2.26967 3.5323,-5.92667 5.30979,-8.12667 1.7775,-2.2 3.98166,-5.45643 4.89812,-7.2365 0.91647,-1.78008 2.95276,-4.70508 4.52509,-6.5 1.57233,-1.79493 6.78642,-9.11155 11.58688,-16.25916 4.80045,-7.14761 10.20947,-14.63536 12.02004,-16.63945 6.12044,-6.77459 5.8511,-10.87729 -0.99692,-15.18592 -2.46602,-1.55156 -5.48875,-2.67656 -6.71719,-2.5 -2.54955,0.36645 -12.25504,12.95994 -19.03121,24.6942 -2.34178,4.05525 -8.06792,12.15525 -12.72476,18 -17.16417,21.54261 -18.62406,27.13682 -8.66631,33.20877 3.47937,2.12161 3.77538,2.1845 6.0941,1.29473 z m -16.70642,-18.62667 c 1.15666,-1.2375 4.37402,-5.625 7.1497,-9.75 2.77569,-4.125 8.95828,-12.9 13.7391,-19.5 20.47949,-28.27227 21.35706,-29.6455 21.35184,-33.41164 -0.003,-2.27257 -0.82818,-4.54432 -2.25,-6.19539 -2.99846,-3.48195 -10.41893,-9.22611 -14.74503,-11.41407 -1.925,-0.97359 -5.06503,-3.05463 -6.97784,-4.62453 -3.77254,-3.09623 -8.43362,-3.73643 -11.40181,-1.56603 -1.59591,1.16696 -10.75226,14.76435 -23.37451,34.71166 -2.61021,4.125 -6.55181,9.30285 -8.7591,11.50633 -7.48562,7.47272 -9.48674,10.78513 -9.48674,15.7032 0,5.59113 2.31184,8.77669 8.47033,11.67152 2.4832,1.16724 7.55573,5.03155 11.27229,8.58735 7.62175,7.29207 11.23479,8.32256 15.01177,4.2816 z m 74.14863,-62.86594 c 1.97834,-3.08876 4.94698,-7.78145 6.59698,-10.4282 1.65,-2.64676 4.50628,-6.26664 6.34728,-8.04418 3.4716,-3.35194 8.08012,-9.65584 12.72896,-17.41168 1.48352,-2.475 4.32325,-6.9014 6.31053,-9.83644 1.98728,-2.93505 4.99339,-7.50235 6.68025,-10.14956 1.68686,-2.6472 5.17049,-7.15268 7.74141,-10.01215 2.57092,-2.85948 6.56405,-8.64219 8.87361,-12.85045 l 4.19922,-7.6514 0.0594,-12.17402 c 0.0529,-10.85506 -0.16803,-12.48019 -2.0395,-15 -1.3655,-1.83854 -3.18793,-2.93458 -5.21569,-3.13678 -3.37792,-0.33684 -3.45379,-0.19846 -4.60981,8.40775 -1.51574,11.28425 -16.27941,35.60086 -33.94115,55.90305 -2.39234,2.75 -5.33694,6.93995 -6.54355,9.31101 -3.49876,6.87529 -8.96851,15.17707 -14.61952,22.18899 -7.38442,9.16278 -9.46338,12.94926 -9.46767,17.24373 -0.003,3.25152 0.5502,4.145 4.20958,6.79584 5.94931,4.30966 8.27941,3.73024 12.6897,-3.15551 z m -20.71325,-12.63406 c 2.86434,-3.07217 13.95827,-18.97741 17.81023,-25.53431 4.32375,-7.35998 11.24519,-17.04386 15.52104,-21.71569 6.03232,-6.59096 12.82362,-15.79348 15.86662,-21.5 1.46644,-2.75 4.21759,-6.93236 6.11366,-9.29413 4.42612,-5.51322 6.60468,-12.53733 7.23,-23.31095 0.49081,-8.45611 0.4475,-8.66323 -2.50172,-11.96398 -2.76999,-3.10016 -3.60698,-3.41397 -10.86539,-4.07377 -15.92911,-1.44799 -17.34824,-1.25893 -24.25919,3.23171 -4.13276,2.68542 -7.20435,5.62213 -8.94883,8.55588 -4.13774,6.95857 -12.92033,19.11939 -19.75605,27.35524 -3.42374,4.125 -10.31696,13.575 -15.31827,21 -5.0013,7.425 -12.22353,17.775 -16.04939,23 -8.81827,12.04316 -9.18005,15.61356 -1.76176,17.38637 2.92037,0.6979 12.82422,7.68737 18.72928,13.21787 7.45732,6.98429 13.87739,8.27106 18.18977,3.64576 z m -19.68977,-16.95981 c -4.36839,-1.08481 -5.5,-3.24208 -5.5,-10.48502 0,-13.95524 8.37712,-21.93489 19.79876,-18.85936 5.54288,1.49254 6.60293,3.72282 5.8782,12.36738 -0.63323,7.5532 -1.8025,9.47219 -8.56035,14.04915 -3.85092,2.60815 -8.3439,3.74056 -11.61661,2.92785 z m 8.41481,-7.74614 c 2.94188,-1.5213 6.08519,-6.88748 6.08519,-10.38848 0,-2.30663 -3.49378,-5.15557 -6.32251,-5.15557 -1.03262,0 -3.40749,1.53 -5.27749,3.4 -2.84411,2.84411 -3.4,4.12484 -3.4,7.83333 0,2.43834 0.3,4.73334 0.66667,5.1 1.13507,1.13508 5.29701,0.73681 8.24814,-0.78928 z m 420.72124,-49.46743 c 8.97787,-6.00681 11.48677,-9.12375 13.12276,-16.30318 2.66903,-11.71283 3.16236,-21.21461 3.45197,-66.48567 0.25281,-39.52007 0.0965,-45.40525 -1.24177,-46.74528 -2.55707,-2.56049 -21.33429,-4.14896 -31.27239,-2.6455 -12.85437,1.94464 -13.65793,2.16219 -14.61901,3.95799 -1.06407,1.98824 -4.08272,68.05169 -4.0797,89.28455 0.002,16.18449 1.95473,29.39818 5.09823,34.50401 1.7683,2.87216 4.46673,4.65422 11.0134,7.27334 1.31475,0.52599 4.70168,0.98487 7.52651,1.01973 4.36876,0.0539 6.01207,-0.52273 11,-3.85999 z m -16.32775,-13.08622 c -4.93613,-1.98828 -7.7617,-10.32663 -6.23223,-18.3915 2.43453,-12.83724 16.35937,-16.5006 25.26237,-6.64605 1.95467,2.16359 4.05425,5.79176 4.66572,8.0626 1.03867,3.85731 0.90304,4.45408 -2.06265,9.07569 -4.7165,7.35004 -7.17144,8.9206 -13.82637,8.84547 -3.08833,-0.0349 -6.60141,-0.46065 -7.80684,-0.94621 z m 13.86823,-5.85682 c 2.80337,-2.50481 3.20809,-3.49918 3.20809,-7.88203 0,-3.05406 -0.67086,-6.03947 -1.71537,-7.63358 -1.45941,-2.22734 -2.43785,-2.61797 -6.55744,-2.61797 -3.38442,0 -5.6353,0.62393 -7.47695,2.07258 -2.29638,1.80633 -2.63486,2.80545 -2.63486,7.77749 0,8.26555 2.01297,10.54312 9.73422,11.01375 1.22883,0.0749 3.67786,-1.15371 5.44231,-2.73024 z m -39.17653,10.21465 c 1.16862,-1.10612 1.53495,-4.33902 1.65822,-14.634 0.20941,-17.48923 -1.36666,-42.658 -2.77772,-44.35822 -0.90647,-1.09223 -7.67661,-1.35601 -34.80294,-1.35601 -34.23396,0 -36.07756,0.19036 -36.07756,3.72525 0,1.1541 13.83858,8.27475 16.08151,8.27475 0.4575,0 4.56382,1.79613 9.12516,3.99139 4.56133,2.19527 8.84,3.99527 9.50815,4 2.69773,0.0191 3.52425,4.59083 3.71571,20.55273 0.21066,17.56187 1.07713,20.81698 5.79484,21.76965 4.89921,0.98932 26.24904,-0.52156 27.77463,-1.96554 z m -218.5,-31.4624 c 13.2,-0.50813 27.6,-1.1485 32,-1.42305 4.4,-0.27455 18.35501,-1.16599 31.01113,-1.98098 12.65612,-0.81499 33.80612,-1.53671 47,-1.60381 13.19388,-0.0671 30.28887,-0.40461 37.98887,-0.75 l 14,-0.62799 0,-2.44065 c 0,-2.598 -0.27623,-2.77045 -16.73789,-10.44969 -4.25584,-1.98531 -7.99837,-3.60966 -8.31672,-3.60966 -0.31836,0 -2.01131,-1.08616 -3.76211,-2.41369 -1.7508,-1.32753 -5.65828,-3.29281 -8.68328,-4.3673 -3.025,-1.07449 -7.975,-2.97844 -11,-4.23101 -12.38489,-5.12821 -15.02863,-5.988 -18.41233,-5.988 -4.25564,0 -6.06733,2.34131 -7.01241,9.06235 -0.99227,7.05673 -5.02857,11.16864 -14.84416,15.12225 l -8.2311,3.3154 -21.5,-0.13062 c -19.01306,-0.11551 -22.3097,-0.38157 -28.5,-2.30016 -3.85,-1.19326 -8.8,-2.62303 -11,-3.17728 -4.97289,-1.25282 -16.44074,-7.57393 -17.16503,-9.46141 -0.29551,-0.77008 -3.29114,-3.23911 -6.65697,-5.48672 l -6.11967,-4.08656 -8.02917,0.56738 c -4.41604,0.31206 -20.36863,0.81519 -35.45021,1.11807 -15.08158,0.30288 -27.79408,0.78124 -28.25,1.06301 -0.45592,0.28178 -0.82895,1.82539 -0.82895,3.43025 0,2.1044 0.76671,3.39192 2.75,4.61798 1.5125,0.93503 4.55,3.36015 6.75,5.38916 4.94544,4.56106 11.50027,8.9569 13.35604,8.9569 0.76547,0 3.97741,1.6875 7.13764,3.75 15.68642,10.23762 16.08085,10.35848 31.50632,9.65367 7.15,-0.32669 23.8,-1.00972 37,-1.51784 z M 454.4783,441.5351 c 1.68555,-0.65646 5.74156,-2.22753 9.01335,-3.49126 8.64264,-3.33824 10.42201,-6.3397 10.42201,-17.57992 0,-4.81463 -0.45765,-9.609 -1.01701,-10.65416 -0.55935,-1.04516 -2.90092,-2.40758 -5.20349,-3.02759 -3.46539,-0.93314 -5.31407,-0.8098 -10.73299,0.71603 -5.41514,1.52478 -10.17572,1.84334 -27.54651,1.84334 -11.55,0 -27.63918,-0.35627 -35.75374,-0.79171 l -14.75374,-0.79172 -2.49626,2.49626 c -1.37294,1.37294 -2.49626,3.48968 -2.49626,4.70386 0,3.07738 4.46107,10.3699 7.75386,12.67525 2.67345,1.87174 14.95738,7.26096 24.45521,10.72903 9.77327,3.56864 41.92268,5.67795 48.35557,3.17259 z m 5.43536,-39.46672 c 12.14847,-1.24615 25.79058,-3.91166 29,-5.66627 1.375,-0.75172 7.45,-3.01891 13.5,-5.03821 17.04536,-5.68919 24.71497,-10.89507 28.02484,-19.02236 1.9862,-4.87707 2.43088,-14.07073 1.42686,-29.5 -0.51895,-7.975 -1.39712,-28.9 -1.95148,-46.5 -1.07027,-33.97962 -2.23802,-43.73853 -5.30368,-44.32326 -0.99191,-0.18919 -5.26691,1.4403 -9.5,3.6211 -11.77953,6.06853 -30.95961,12.20216 -38.15663,12.20216 -1.74426,0 -4.15431,0.53853 -5.35565,1.19673 -1.20134,0.65821 -6.00926,1.49408 -10.68426,1.85751 -4.675,0.36343 -11.2,1.22391 -14.5,1.91219 -4.34839,0.90695 -13.29461,1.10366 -32.5,0.71462 -24.76646,-0.5017 -37.86139,-1.66118 -52.5,-4.64857 -16.95199,-3.45949 -20.24371,-4.32572 -25.01446,-6.58265 -2.84819,-1.3474 -5.6095,-2.44983 -6.13625,-2.44983 -0.52675,0 -3.08646,-1.35 -5.68824,-3 -5.95175,-3.77449 -8.3871,-3.83679 -9.77355,-0.25 -1.47003,3.80301 -0.59862,12.80674 1.45959,15.08104 0.92682,1.02412 3.42967,2.38471 5.56189,3.02354 5.56415,1.66706 15.23453,12.26115 18.09952,19.82839 1.88697,4.984 2.11337,7.01747 1.5809,14.19968 -0.91421,12.33139 -1.72025,13.59505 -17.44487,27.34876 l -4.26613,3.73141 0.3108,18.9406 c 0.30242,18.43 0.37572,19.00963 2.71897,21.5014 1.32449,1.40844 3.34949,2.85519 4.5,3.21499 1.15051,0.3598 3.89183,1.8585 6.09183,3.33044 2.2,1.47194 6.025,3.24721 8.5,3.94506 2.475,0.69784 6.075,2.32631 8,3.61882 1.925,1.2925 6.425,2.85247 10,3.46658 3.575,0.61412 7.97015,1.58211 9.767,2.1511 10.83835,3.43203 64.95053,4.68841 90.233,2.09503 z m -26.5,-12.90177 c -5.29127,-1.15681 -8.15662,-3.22995 -14.82819,-10.72851 -7.06243,-7.93787 -14.08825,-19.87108 -18.20078,-30.91368 -2.89459,-7.77229 -5.86894,-10.23519 -13.29494,-11.00884 -6.8527,-0.71392 -17.63304,-5.89283 -19.88634,-9.55347 -1.64593,-2.67393 -4.28975,-14.38586 -4.28975,-19.00331 0,-5.40565 4.68817,-13.99283 9.69602,-17.75993 3.01281,-2.26635 6.18484,-3.51182 11.24896,-4.41683 13.90556,-2.48507 23.45899,2.378 29.09649,14.81124 1.62719,3.58869 2.95817,7.70015 2.95774,9.13658 -10e-4,3.47458 -4.87646,13.6235 -9.37684,19.5193 -1.9923,2.61007 -3.62237,5.44549 -3.62237,6.30094 0,3.27823 4.40415,8.39818 13.55577,15.75897 10.16653,8.17709 15.10701,10.53247 22.0922,10.53247 4.04409,0 5.04766,-0.58114 12.51986,-7.25 8.46528,-7.55517 16.83217,-18.49965 16.83217,-22.01767 0,-1.12395 -1.16102,-3.56573 -2.58005,-5.42617 -3.63645,-4.76763 -8.41995,-15.70196 -8.41995,-19.24669 0,-4.39866 3.93752,-14.15177 6.91079,-17.11779 1.42406,-1.4206 6.39548,-4.03476 11.04759,-5.80924 8.18004,-3.12016 8.60783,-3.17868 13,-1.77829 2.49789,0.79642 5.96871,1.74553 7.71293,2.10912 1.95562,0.40766 4.86979,2.47688 7.60204,5.39787 5.90098,6.30863 7.51359,12.52773 5.77339,22.26532 -2.2386,12.52642 -8.59047,18.04913 -23.07172,20.05998 -4.66126,0.64725 -9.06741,1.625 -9.79144,2.17276 -4.00903,3.03302 -13.38375,20.50868 -22.87442,42.6408 -1.79894,4.19513 -4.90237,7.7289 -8.30916,9.46137 -3.01644,1.53396 -8.75466,2.4639 -11.5,1.8637 z m 9.4062,-7.92873 c 5.77997,-3.41431 10.36537,-14.58743 6.58238,-16.03909 -0.83128,-0.319 -3.72833,0.14513 -6.43789,1.03138 -6.765,2.21272 -9.96824,2.02853 -15.45467,-0.88863 -6.13977,-3.26455 -10.59969,-3.36987 -10.58652,-0.25 0.0155,3.66124 7.27092,14.14823 11.09003,16.02945 4.32666,2.13123 11.30342,2.18631 14.80667,0.11689 z m -45.62408,-51.7771 c 3.92159,-1.68271 9.21706,-7.11623 10.65655,-10.93434 0.58373,-1.5483 1.06133,-5.51723 1.06133,-8.81982 0,-5.03001 -0.4847,-6.70921 -2.98595,-10.34466 -4.27934,-6.2198 -8.80333,-8.71854 -15.90613,-8.78544 -11.11653,-0.10471 -19.38143,5.96774 -21.151,15.54023 -1.81077,9.79538 1.90308,18.15602 9.95036,22.40031 5.11313,2.69676 13.30843,3.11766 18.37484,0.94372 z m 96.83172,-4.19813 c 4.07289,-2.82252 10.88616,-14.4771 10.88616,-18.62156 0,-2.71186 -4.49081,-10.17869 -8.1091,-13.48294 -3.3802,-3.08682 -7.19523,-4.31661 -13.3909,-4.31661 -7.04725,0 -10.12131,1.25819 -15.20701,6.2241 -5.08069,4.96104 -5.86294,7.95546 -4.27574,16.36731 1.03492,5.48489 1.89876,7.15694 5.89858,11.41728 l 4.68609,4.99131 7.89529,0 c 6.85738,0 8.38449,-0.33902 11.61663,-2.57889 z m 138.38616,37.09558 c 9.31655,-1.39077 13.13215,-1.47447 24.93185,-0.54695 12.27712,0.96505 14.11811,0.90897 15.5,-0.47214 1.36446,-1.36368 1.60284,-6.9208 1.83518,-42.78243 0.14687,-22.66834 -0.0781,-44.76822 -0.5,-49.11085 -1.14294,-11.76516 -1.51737,-11.95646 -24.2352,-12.382 -10.93591,-0.20485 -19.48163,0.091 -21.96791,0.76047 -6.84221,1.84241 -7.14478,2.97664 -6.83554,25.62467 l 0.27162,19.89254 7.16561,-0.29105 c 4.45247,-0.18085 7.42397,0.12698 7.84796,0.81301 1.11488,1.80391 -2.32775,4.69382 -6.99008,5.86781 -2.39434,0.6029 -5.69409,2.22434 -7.33277,3.60321 -3.75631,3.16072 -7.59091,3.18951 -11.28077,0.0847 -3.47239,-2.92183 -12.87009,-6.57768 -16.90851,-6.57768 -3.22886,0 -6.73482,3.08953 -7.65176,6.7429 -0.95435,3.80242 1.81939,15.51291 4.57565,19.31808 1.02027,1.40853 3.20629,5.23353 4.85781,8.5 2.96756,5.86937 12.32234,18.21819 16.49443,21.77354 1.54039,1.31268 3.15824,1.69083 5.68759,1.32938 1.94416,-0.27783 8.48484,-1.24407 14.53484,-2.14721 z M 322.36389,330.1199 c 0.75571,-0.4281 3.17449,-2.44785 5.37507,-4.48833 8.01882,-7.43545 10.39445,-21.55848 5.30456,-31.53548 -1.97803,-3.87726 -11.35302,-12.69806 -16.32257,-15.35768 -3.18679,-1.70552 -13.50661,-0.50904 -16.15094,1.87255 -1.18599,1.06815 -3.64936,2.7945 -5.47414,3.83634 -3.96016,2.26099 -8.89735,9.35887 -9.77904,14.0587 -0.34844,1.85733 -0.43563,6.18015 -0.19377,9.60625 0.72548,10.27658 7.80034,19.56139 17.2906,22.6916 3.25735,1.07439 17.72166,0.57851 19.95023,-0.68395 z M 550.4251,315.59154 c 10.31857,-6.72245 15.14751,-23.8472 9.6982,-34.39255 -4.21915,-8.1648 -13.48105,-13.9247 -21.20964,-13.19012 l -3.5,0.33267 0,23.14682 c 0,21.35932 0.14711,23.30925 1.90499,25.25 2.77175,3.06012 7.25057,2.66822 13.10645,-1.14682 z M 447.91366,266.74287 c 26.15648,-2.63143 28.14761,-3.02205 51.5,-10.10309 12.31367,-3.73382 21.79181,-9.48976 24.55931,-14.9145 5.0767,-9.95116 0.86718,-16.17023 -14.59849,-21.56755 -12.53757,-4.37544 -31.0218,-9.49107 -34.96082,-9.67563 -2.89257,-0.13553 -2.99166,0.003 -2.76702,3.85944 0.12814,2.2 0.5033,6.51863 0.83368,9.59696 0.90633,8.44468 -0.93485,10.04633 -16.52638,14.37631 -12.16869,3.37942 -12.9278,3.46372 -32.5,3.60912 -17.41584,0.12939 -21.17634,-0.13075 -28.71526,-1.98643 -11.82121,-2.90975 -15.26944,-4.50099 -18.26535,-8.42884 -3.64941,-4.78462 -3.30528,-7.90292 1.44033,-13.05129 2.2,-2.38672 4,-5.34698 4,-6.57835 0,-2.04057 -0.37643,-2.19749 -4.25,-1.77175 -5.57722,0.61299 -14.1518,2.4129 -25.25,5.30028 -4.95,1.28782 -10.8,2.80426 -13,3.36986 -5.48084,1.40907 -13.95167,6.64099 -19.70611,12.17127 -4.00474,3.84873 -4.79389,5.20682 -4.79389,8.25 0,12.65967 33.64623,24.97636 75.5,27.63786 31.31235,1.99117 36.86658,1.98212 57.5,-0.0937 z m -29.35674,-32.41406 c 0.93625,-2.43983 -1.37124,-4.22069 -6.42548,-4.95905 -2.69774,-0.3941 -7.9291,-2.5244 -12.21778,-4.97528 -4.125,-2.35734 -8.4955,-4.59605 -9.71223,-4.97491 -2.22769,-0.69364 -6.16014,0.78142 -7.52246,2.82167 -1.40236,2.10024 -0.75448,6.30013 1.25199,8.11595 4.41295,3.99367 33.3441,7.31208 34.62596,3.97162 z m 35.04469,-1.06017 c 7.82758,-1.80739 11.54792,-4.61892 11.10753,-8.39414 -0.26039,-2.23214 -0.74086,-2.51941 -4.04559,-2.41889 -2.22612,0.0677 -5.27399,1.15396 -7.5,2.67297 -2.06244,1.40739 -5.64339,3.05578 -7.95767,3.6631 -4.55993,1.19662 -5.77937,2.33799 -4.91222,4.59775 0.72175,1.88084 4.79943,1.84382 13.30795,-0.12079 z m -13.85086,-9.36478 c 6.05404,-0.70123 8.28173,-1.50045 12.73904,-4.57031 8.52468,-5.87118 9.93221,-8.93257 9.88133,-21.49201 -0.0467,-11.52425 -0.42168,-12.6785 -7.65313,-23.55671 -6.7857,-10.20767 -13.82051,-13.44329 -29.22807,-13.44329 -11.23661,0 -14.31806,1.4295 -23.77783,11.03067 -8.04675,8.16703 -9.81613,11.95041 -10.51775,22.4896 -0.69631,10.45946 1.66844,16.40466 9.29904,23.37859 4.46324,4.07915 6.24698,5.01794 11.1182,5.85154 7.41613,1.2691 18.78729,1.39515 28.13917,0.31192 z"
       id="path3068"
       inkscape:connector-curvature="0" />
  </g>
</svg>
